<svg width="90" height="46" viewBox="0 0 1861 960" fill="none" xmlns="http://www.w3.org/2000/svg">
<path d="M1457.82 97.4424C1466.69 101.356 1472.64 109.397 1477.69 117.412C1480.38 121.309 1481.19 122.128 1485.56 123.672C1489.47 124.058 1493.38 124.1 1497.32 124.179C1510.34 124.694 1519.73 127.276 1529.54 136.245C1535.8 143.361 1538.57 151.874 1538.43 161.232C1538.42 162.313 1538.4 163.395 1538.39 164.51C1538.37 165.734 1538.37 165.734 1538.34 166.984C1539.68 166.537 1541.02 166.091 1542.4 165.631C1549.11 165.264 1555.83 165.298 1562.54 165.292C1563.52 165.291 1564.49 165.29 1565.5 165.289C1599.77 165.34 1632.3 172.134 1664.22 184.58C1665.08 184.91 1665.95 185.24 1666.84 185.581C1678.85 190.249 1689.99 196.173 1701.1 202.683C1702.4 203.439 1703.69 204.196 1705.02 204.976C1710.38 208.184 1715.52 211.289 1720.12 215.541C1726.13 221.108 1730.38 224.128 1738.68 224.175C1743.86 223.97 1749.01 223.525 1754.17 223.054C1787.44 220.066 1820.3 234.269 1845.59 254.962C1846.55 255.702 1847.51 256.441 1848.5 257.204C1855.1 262.446 1859.84 267.591 1860.94 276.184C1861.18 283.577 1860.83 289.383 1856.42 295.567C1849.79 302.277 1844.2 303.734 1835.02 305.126C1826.52 306.47 1819.24 308.262 1811.49 312.07C1809.04 313.162 1809.04 313.162 1806.34 313.162C1807.35 315.206 1807.35 315.206 1808.37 317.292C1818.22 337.545 1825.96 357.695 1831.12 379.653C1831.45 381.039 1831.78 382.424 1832.12 383.851C1836.52 403.558 1837.99 423.207 1837.89 443.353C1837.89 444.377 1837.89 445.401 1837.89 446.457C1837.82 465.888 1836.71 485.02 1831.69 503.885C1827.63 519.227 1827.63 519.227 1832.83 534.09C1837.68 543.497 1837.95 552.939 1837.89 563.307C1837.88 564.624 1837.88 565.942 1837.87 567.299C1837.69 578.354 1837.08 588.859 1830.36 598.075C1824.05 603.817 1817.74 606.33 1809.12 606.011C1802.49 604.838 1796.97 601.077 1791.45 597.398C1782.41 607.754 1773.41 618.119 1764.78 628.825C1762.52 631.558 1760.24 634.22 1757.89 636.861C1728.06 670.405 1711.88 706.524 1710.02 751.545C1709.53 763.114 1708.14 772.925 1699.5 781.306C1688.8 789.725 1679.01 790.784 1665.57 789.596C1654.72 786.857 1648.06 777.804 1642.23 768.786C1640 764.951 1640 764.951 1635.8 762.526C1633.12 762.119 1633.12 762.119 1630.2 762.156C1628.57 762.12 1628.57 762.12 1626.91 762.083C1625.77 762.062 1624.62 762.04 1623.45 762.018C1613.99 761.667 1605.93 761.256 1597.9 755.758C1597.03 755.17 1596.16 754.582 1595.27 753.977C1587.76 748.226 1583.47 740.657 1581.66 731.395C1581.57 729.254 1581.54 727.109 1581.57 724.966C1581.58 723.884 1581.6 722.803 1581.61 721.688C1581.63 720.463 1581.63 720.463 1581.66 719.214C1580.32 719.66 1578.98 720.107 1577.6 720.567C1541.01 722.827 1505.49 718.594 1470.67 707.032C1469.69 706.708 1468.71 706.383 1467.7 706.049C1453.64 701.288 1440.44 695.066 1427.36 688.083C1426.54 687.654 1425.73 687.225 1424.89 686.783C1417.28 682.731 1410.02 678.667 1403.33 673.216C1392.54 663.968 1392.54 663.968 1378.88 662.113C1376.09 662.609 1373.29 663.142 1370.51 663.72C1335.42 666.274 1301.23 653.184 1274.41 631.236C1273.45 630.496 1272.49 629.756 1271.5 628.994C1264.9 623.752 1260.16 618.606 1259.06 610.013C1258.82 602.62 1259.17 596.814 1263.58 590.631C1270.21 583.921 1275.8 582.464 1284.98 581.072C1293.48 579.728 1300.76 577.936 1308.51 574.127C1310.96 573.035 1310.96 573.035 1313.66 573.035C1312.89 571.509 1312.12 569.982 1311.33 568.409C1301.01 547.536 1293.5 526.344 1288.2 503.668C1287.94 502.551 1287.67 501.434 1287.4 500.283C1283.22 481.307 1282.01 462.216 1282.11 442.845C1282.11 441.821 1282.11 440.797 1282.11 439.741C1282.18 420.309 1283.29 401.178 1288.31 382.313C1292.37 366.971 1292.37 366.971 1287.17 352.107C1282.32 342.701 1282.05 333.259 1282.11 322.891C1282.12 321.573 1282.12 320.256 1282.13 318.899C1282.31 307.844 1282.92 297.339 1289.64 288.123C1295.95 282.381 1302.26 279.868 1310.88 280.187C1317.51 281.359 1323.03 285.121 1328.55 288.799C1337.59 278.448 1346.58 268.087 1355.21 257.389C1357.5 254.609 1359.82 251.891 1362.21 249.194C1392.31 215.107 1407.76 179.027 1409.69 133.39C1410.4 122.068 1413.03 111.252 1421.86 103.454C1433.16 95.844 1444.41 94.1215 1457.82 97.4424Z" fill="#3E50B3"/>
<path d="M1445.71 119.442C1452.62 121.701 1454.55 125.66 1458.15 131.708C1463.9 139.542 1472.12 145.28 1481.5 148.035C1486.97 148.639 1492.44 148.562 1497.94 148.511C1503.83 148.623 1506.47 148.834 1511.34 152.444C1513.99 156.17 1514.91 157.758 1514.83 162.247C1514.84 163.238 1514.86 164.229 1514.88 165.25C1513.51 169.95 1510.93 171.992 1507.21 175.105C1502.78 177.41 1502.78 177.41 1497.82 179.504C1480.03 187.412 1465.46 197.924 1451.72 211.65C1450.54 212.819 1449.35 213.988 1448.13 215.192C1423.04 241.248 1410.31 277.058 1410.92 312.898C1412.03 352.069 1429.37 388.47 1457.48 415.484C1484.15 438.844 1516.16 451.969 1551.62 452.956C1592.77 454.123 1625.31 464.807 1654.75 494.532C1675.88 517.394 1688.67 548.568 1687.62 579.787C1686.01 607.616 1674.67 634.898 1656.1 655.599C1655 656.826 1653.9 658.052 1652.77 659.316C1635.01 678.087 1613.34 688.581 1588.42 694.851C1587.08 695.217 1587.08 695.217 1585.71 695.59C1577.02 697.792 1568.6 698.027 1559.66 697.981C1558.12 697.974 1556.57 697.967 1554.98 697.96C1489.45 697.07 1429.46 669.86 1382.34 625.188C1376.56 619.53 1376.56 619.53 1369.16 617.193C1364.5 617.775 1362.66 618.101 1359.68 621.761C1358.82 629.433 1359.47 632.846 1363.74 639.357C1337.64 641.701 1311.62 630.848 1291.78 614.375C1290.96 613.686 1290.14 612.997 1289.3 612.287C1288.3 611.584 1287.3 610.881 1286.27 610.156C1285.48 609.519 1284.7 608.883 1283.89 608.226C1283.89 607.333 1283.89 606.44 1283.89 605.519C1285.44 605.368 1285.44 605.368 1287.02 605.213C1298.05 603.858 1307.32 600.862 1317.43 596.505C1320.74 595.127 1323.71 594.043 1327.2 593.338C1327.66 594.022 1328.12 594.706 1328.59 595.41C1332.44 600.727 1332.44 600.727 1338.13 603.584C1342.05 603.686 1345.33 603.22 1348.85 601.459C1351.03 597.096 1350.83 592.655 1350.21 587.924C1348.53 584.441 1346.93 581.603 1344.79 578.449C1343.66 576.671 1342.54 574.89 1341.42 573.104C1340.85 572.198 1340.28 571.292 1339.69 570.358C1308.08 518.45 1296.59 450.473 1310.33 391.252C1311.45 386.969 1312.7 382.72 1313.93 378.464C1316.97 366.189 1315.39 356.807 1309.99 345.493C1306.31 337.24 1305.13 329.929 1305.29 321.03C1305.29 320.085 1305.29 319.14 1305.29 318.167C1305.33 313.611 1305.49 309.397 1306.89 305.041C1311.1 306.62 1314.97 308.467 1318.91 310.625C1324.2 313.262 1327.99 314.017 1333.96 313.162C1342.76 310.04 1347.75 305.106 1353.25 297.766C1354.78 295.808 1356.31 293.852 1357.84 291.898C1358.6 290.919 1359.36 289.941 1360.14 288.933C1363.47 284.718 1366.98 280.668 1370.51 276.618C1406.56 234.809 1430.5 195.198 1432.7 138.69C1433.44 126.105 1433.44 126.105 1437.31 121.943C1440.89 119.611 1440.89 119.611 1445.71 119.442Z" fill="#FD5621"/>
<path d="M1457.82 97.4424C1466.69 101.356 1472.64 109.397 1477.69 117.412C1480.38 121.309 1481.19 122.128 1485.56 123.672C1489.47 124.058 1493.38 124.1 1497.32 124.179C1510.34 124.694 1519.73 127.276 1529.54 136.245C1535.8 143.361 1538.57 151.874 1538.43 161.232C1538.42 162.313 1538.4 163.395 1538.39 164.51C1538.37 165.734 1538.37 165.734 1538.34 166.984C1539.68 166.537 1541.02 166.091 1542.4 165.631C1549.11 165.264 1555.83 165.298 1562.54 165.292C1563.52 165.291 1564.49 165.29 1565.5 165.289C1599.77 165.34 1632.3 172.134 1664.22 184.58C1665.08 184.91 1665.95 185.24 1666.84 185.581C1678.85 190.249 1689.99 196.173 1701.1 202.683C1702.4 203.439 1703.69 204.196 1705.02 204.976C1710.38 208.184 1715.52 211.289 1720.12 215.541C1726.13 221.108 1730.38 224.128 1738.68 224.175C1743.86 223.97 1749.01 223.525 1754.17 223.054C1787.44 220.066 1820.3 234.269 1845.59 254.962C1846.55 255.702 1847.51 256.441 1848.5 257.204C1855.1 262.446 1859.84 267.591 1860.94 276.184C1861.18 283.577 1860.83 289.383 1856.42 295.567C1849.79 302.277 1844.2 303.734 1835.02 305.126C1826.52 306.47 1819.24 308.262 1811.49 312.07C1809.04 313.162 1809.04 313.162 1806.34 313.162C1807.35 315.206 1807.35 315.206 1808.37 317.292C1818.22 337.545 1825.96 357.695 1831.12 379.653C1831.45 381.039 1831.78 382.424 1832.12 383.851C1836.52 403.558 1837.99 423.207 1837.89 443.353C1837.89 444.377 1837.89 445.401 1837.89 446.457C1837.82 465.888 1836.71 485.02 1831.69 503.885C1827.63 519.227 1827.63 519.227 1832.83 534.09C1837.68 543.497 1837.95 552.939 1837.89 563.307C1837.88 564.624 1837.88 565.942 1837.87 567.299C1837.69 578.354 1837.08 588.859 1830.36 598.075C1824.05 603.817 1817.74 606.33 1809.12 606.011C1802.49 604.838 1796.97 601.077 1791.45 597.398C1782.41 607.754 1773.41 618.119 1764.78 628.825C1762.52 631.558 1760.24 634.22 1757.89 636.861C1728.06 670.405 1711.88 706.524 1710.02 751.545C1709.53 763.114 1708.14 772.925 1699.5 781.306C1688.8 789.725 1679.01 790.784 1665.57 789.596C1654.72 786.857 1648.06 777.804 1642.23 768.786C1640 764.951 1640 764.951 1635.8 762.526C1633.12 762.119 1633.12 762.119 1630.2 762.156C1628.57 762.12 1628.57 762.12 1626.91 762.083C1625.77 762.062 1624.62 762.04 1623.45 762.018C1613.99 761.667 1605.93 761.256 1597.9 755.758C1597.03 755.17 1596.16 754.582 1595.27 753.977C1587.76 748.226 1583.47 740.657 1581.66 731.395C1581.57 729.254 1581.54 727.109 1581.57 724.966C1581.58 723.884 1581.6 722.803 1581.61 721.688C1581.63 720.463 1581.63 720.463 1581.66 719.214C1580.32 719.66 1578.98 720.107 1577.6 720.567C1541.01 722.827 1505.49 718.594 1470.67 707.032C1469.69 706.708 1468.71 706.383 1467.7 706.049C1453.64 701.288 1440.44 695.066 1427.36 688.083C1426.54 687.654 1425.73 687.225 1424.89 686.783C1417.28 682.731 1410.02 678.667 1403.33 673.216C1392.54 663.968 1392.54 663.968 1378.88 662.113C1376.09 662.609 1373.29 663.142 1370.51 663.72C1335.42 666.274 1301.23 653.184 1274.41 631.236C1273.45 630.496 1272.49 629.756 1271.5 628.994C1264.9 623.752 1260.16 618.606 1259.06 610.013C1258.82 602.62 1259.17 596.814 1263.58 590.631C1270.21 583.921 1275.8 582.464 1284.98 581.072C1293.48 579.728 1300.76 577.936 1308.51 574.127C1310.96 573.035 1310.96 573.035 1313.66 573.035C1312.89 571.509 1312.12 569.982 1311.33 568.409C1301.01 547.536 1293.5 526.344 1288.2 503.668C1287.94 502.551 1287.67 501.434 1287.4 500.283C1283.22 481.307 1282.01 462.216 1282.11 442.845C1282.11 441.821 1282.11 440.797 1282.11 439.741C1282.18 420.309 1283.29 401.178 1288.31 382.313C1292.37 366.971 1292.37 366.971 1287.17 352.107C1282.32 342.701 1282.05 333.259 1282.11 322.891C1282.12 321.573 1282.12 320.256 1282.13 318.899C1282.31 307.844 1282.92 297.339 1289.64 288.123C1295.95 282.381 1302.26 279.868 1310.88 280.187C1317.51 281.359 1323.03 285.121 1328.55 288.799C1337.59 278.448 1346.58 268.087 1355.21 257.389C1357.5 254.609 1359.82 251.891 1362.21 249.194C1392.31 215.107 1407.76 179.027 1409.69 133.39C1410.4 122.068 1413.03 111.252 1421.86 103.454C1433.16 95.844 1444.41 94.1215 1457.82 97.4424ZM1435.6 123.882C1432.31 129.456 1432.9 136.404 1432.69 142.706C1430.26 184.844 1416.5 221.036 1389.46 253.608C1388.56 254.688 1388.56 254.688 1387.65 255.79C1383.34 260.968 1378.96 266.09 1374.57 271.204C1372.08 274.104 1369.6 277.009 1367.13 279.917C1366.21 280.987 1366.21 280.987 1365.27 282.079C1361.99 285.942 1358.85 289.864 1355.82 293.928C1342.51 311.739 1342.51 311.739 1329.4 313.924C1323.51 313.011 1319.18 310.839 1313.98 308.008C1310.87 306.24 1310.87 306.24 1306.89 305.041C1301.92 321.147 1306.1 337.433 1312.31 352.414C1312.82 353.348 1313.33 354.281 1313.85 355.243C1317.73 363.864 1315.1 374.567 1312.56 383.206C1303.68 414.238 1302.4 449.289 1308.25 480.997C1308.53 482.607 1308.81 484.218 1309.09 485.877C1310.05 491.046 1311.13 496.177 1312.31 501.3C1312.52 502.204 1312.72 503.108 1312.94 504.04C1320.03 534.094 1333.11 562.28 1350.21 587.924C1350.94 592.647 1351.01 597.146 1348.85 601.459C1344.33 603.718 1340.12 604.133 1335.32 602.812C1332.03 600.031 1329.6 596.899 1327.2 593.338C1321.63 595.129 1316.27 597.19 1310.87 599.429C1301.99 602.896 1293.33 604.484 1283.89 605.519C1283.89 606.413 1283.89 607.306 1283.89 608.226C1302.49 626.491 1330.63 639.58 1356.72 639.611C1359.06 639.547 1361.4 639.471 1363.74 639.357C1363.08 638.356 1362.43 637.354 1361.75 636.322C1358.74 630.888 1358.99 627.909 1359.68 621.761C1362.5 618.292 1364.5 617.837 1368.82 616.855C1375.62 618.162 1379.18 622.447 1384.04 627.175C1434.07 674.624 1499 699.149 1567.76 697.986C1578.79 697.589 1588.78 695.534 1599.25 692.144C1600.78 691.653 1602.32 691.163 1603.89 690.658C1622.97 683.909 1637.93 673.926 1652.04 659.66C1653.14 658.573 1654.24 657.486 1655.37 656.366C1668.24 642.975 1675.84 626.984 1681.82 609.58C1682.29 608.223 1682.76 606.865 1683.25 605.467C1692.45 576.423 1686.62 546.69 1672.94 520.227C1667.43 510.314 1660.89 501.663 1653.39 493.179C1652.65 492.318 1651.9 491.458 1651.13 490.572C1628.18 465.866 1593.67 454.53 1560.83 453.308C1557.85 453.213 1554.87 453.118 1551.89 453.023C1509.87 451.642 1475 434.308 1446.22 403.593C1426.71 380.853 1411.74 348.865 1411.11 318.576C1411.05 316.94 1410.98 315.303 1410.91 313.617C1409.74 275.47 1424.68 240.683 1450.16 212.786C1463.64 198.494 1479.13 188.676 1496.76 180.281C1506.59 175.831 1506.59 175.831 1513.98 168.338C1514.56 165.483 1514.56 165.483 1514.57 162.416C1514.63 161.4 1514.68 160.385 1514.74 159.339C1513.54 154.298 1511.35 152.435 1507.21 149.388C1503.11 148.585 1499.11 148.71 1494.95 148.796C1482.33 148.586 1472.3 146.311 1462.66 137.556C1459.4 133.931 1456.86 130.026 1454.17 125.956C1451.87 122.05 1451.87 122.05 1447.66 119.611C1442.28 118.62 1439.37 119.919 1435.6 123.882ZM1473.38 221.124C1471.64 222.668 1471.64 222.668 1469.87 224.244C1448.23 244.588 1434.24 274.677 1432.5 304.28C1432.02 340.078 1445.92 371.249 1470.25 397.164C1492.66 418.839 1522.14 430.927 1553.06 431.509C1599.62 432.947 1637.64 446.415 1671.1 479.749C1692.11 502.162 1708.18 535.221 1708.89 566.268C1708.95 567.873 1709.02 569.478 1709.09 571.132C1710.18 606.528 1697.67 642.854 1673.69 669.134C1672.76 670.162 1672.76 670.162 1671.81 671.211C1656.17 688.276 1638.63 698.871 1617.63 708.539C1610.43 711.75 1610.43 711.75 1606.02 717.86C1605.32 722.088 1604.95 725.874 1606.02 730.042C1608.64 733.977 1608.64 733.977 1612.79 736.809C1616.68 737.387 1619.91 737.62 1623.78 737.571C1636.71 737.887 1648.2 740.029 1657.95 749.186C1662.34 754.181 1665.95 759.708 1669.63 765.233C1671.11 766.986 1671.11 766.986 1674.71 767.094C1679.24 766.929 1679.24 766.929 1682.72 764.022C1687.17 758.098 1686.71 753.414 1686.64 746.199C1687.64 691.464 1714.49 650.213 1749.38 610.315C1757.63 600.862 1765.52 591.133 1772.9 580.987C1776.8 576.698 1780.31 574.647 1786.06 573.754C1796.41 573.654 1803.3 575.043 1811.75 581.156C1816.95 567.292 1815.05 552.998 1810.4 539.198C1809.44 537.125 1808.46 535.065 1807.44 533.022C1802.2 521.699 1805.08 511.065 1808.17 499.474C1820.05 453.928 1816.63 404.687 1800.92 360.535C1800.53 359.43 1800.14 358.325 1799.74 357.187C1792.78 337.883 1783.97 318.734 1772.09 301.917C1768.69 296.526 1769.08 293.7 1769.79 287.446C1771.15 284.739 1771.15 284.739 1773.85 283.385C1780.64 282.273 1780.64 282.273 1784.68 283.385C1787.97 286.167 1790.4 289.299 1792.8 292.86C1797.04 291.547 1800.94 290.145 1804.9 288.123C1815.21 283.074 1826.19 282.149 1837.47 280.678C1818.34 261.286 1792.55 247.728 1764.85 246.709C1763.32 246.732 1763.32 246.732 1761.76 246.756C1760.19 246.774 1760.19 246.774 1758.59 246.793C1757.82 246.809 1757.05 246.825 1756.26 246.841C1756.93 247.511 1757.6 248.181 1758.29 248.871C1761.13 253.612 1761.3 257.68 1760.32 263.083C1757.62 267.233 1755.96 268.233 1751.18 269.427C1744.42 267.997 1740.81 263.754 1735.96 259.022C1698.52 223.032 1650.56 199.327 1599.25 191.347C1596.94 190.931 1596.94 190.931 1594.58 190.506C1550.65 183.374 1507.16 190.609 1473.38 221.124Z" fill="#010000"/>
<path d="M1772.5 302.334C1774.28 304.689 1774.28 304.689 1776.07 307.78C1777.07 309.5 1777.07 309.5 1778.08 311.254C1778.78 312.498 1779.48 313.742 1780.2 315.024C1780.92 316.298 1781.64 317.572 1782.38 318.885C1813.54 375.065 1824.39 442.864 1806.87 505.275C1806.53 506.42 1806.19 507.565 1805.83 508.744C1802.94 520.244 1805.27 528.85 1810.07 539.425C1815.79 552.44 1816.79 567.812 1811.75 581.156C1811.03 580.683 1810.31 580.211 1809.56 579.723C1801.7 574.919 1795.22 573.246 1786.04 573.035C1787.82 572.589 1789.61 572.142 1791.45 571.682C1791.19 556.62 1788.78 541.629 1781.78 528.089C1778 520.196 1781.09 510.613 1783.53 502.743C1786.91 490.574 1788.09 478.519 1788.91 465.939C1789.03 464.257 1789.15 462.575 1789.27 460.842C1789.55 456.733 1789.83 452.623 1790.1 448.513C1789.06 449.169 1788.03 449.825 1786.97 450.501C1782.52 453.034 1780.25 453.414 1775.21 452.573C1771.49 449.359 1771.49 449.359 1768.44 445.806C1767.1 444.466 1767.1 444.466 1765.73 443.099C1763.06 443.03 1763.06 443.03 1760.32 444.452C1758.49 446.691 1756.69 448.948 1754.9 451.22C1749.32 455.467 1745.16 455.728 1738.24 455.534C1736.54 455.498 1734.84 455.461 1733.1 455.423C1731.81 455.376 1730.52 455.329 1729.19 455.28C1729.15 456.179 1729.12 457.077 1729.08 458.003C1728.72 463.641 1728.27 467.948 1725.72 473.045C1721.89 475.988 1719.09 476.593 1714.26 476.196C1711.59 475.583 1711.59 475.583 1707.53 473.384C1703.09 465.892 1703.65 458.335 1704.83 449.866C1706.38 445.461 1708.4 442.426 1711.59 439.038C1712.2 438.36 1712.81 437.681 1713.44 436.982C1718.83 432.149 1724.14 431.721 1731.22 431.002C1739.06 430.205 1743.62 429.271 1748.96 423.388C1752.89 419.339 1757 418.297 1762.52 418.144C1770.43 418.308 1776.9 420.935 1783.33 425.503C1785.21 427.699 1787.03 429.944 1788.74 432.271C1789.99 413.472 1786.34 396.339 1781.97 378.131C1781.72 377.031 1781.47 375.931 1781.21 374.798C1776.57 354.843 1768.97 334.818 1758.52 317.165C1756.26 313.162 1756.26 313.162 1756.68 310.286C1765.84 300.113 1765.84 300.113 1772.5 302.334Z" fill="#273491"/>
<path d="M1584.36 541.905C1594.95 549.086 1602.64 559.317 1606.02 571.682C1607.59 587.09 1604.97 600.066 1595.19 612.287C1584.78 623.081 1575.19 627.688 1560.25 628.021C1546.65 627.943 1536.27 623.741 1526.16 614.486C1516.38 603.703 1513.29 590.721 1513.57 576.461C1514.74 562.817 1521.72 553.75 1531.58 544.612C1534.73 542.223 1537.38 540.865 1541.05 539.198C1541.85 538.798 1542.65 538.399 1543.47 537.987C1557.41 531.708 1571.45 534.677 1584.36 541.905Z" fill="#030101"/>
<path d="M1581.23 262.491C1594.22 270.188 1601.26 279.922 1606.02 294.213C1607.31 310.29 1605.49 322.813 1594.94 335.326C1584.79 345.807 1573.44 350.777 1558.98 351.653C1546.91 351.356 1535.81 345.719 1527.18 337.467C1516.63 325.669 1513.28 315.077 1513.57 299.294C1514.67 285.615 1521.39 276.085 1531.58 267.143C1545.81 256.494 1565.15 255.006 1581.23 262.491Z" fill="#010103"/>
<path d="M1488.26 149.388C1505.4 148.345 1505.4 148.345 1511.78 152.011C1514.66 157.43 1515.72 162.353 1513.98 168.337C1509.31 174.054 1504.55 176.659 1497.82 179.504C1480.03 187.412 1465.46 197.924 1451.72 211.65C1450.53 212.819 1449.35 213.988 1448.13 215.192C1423.04 241.248 1410.31 277.057 1410.92 312.898C1412.04 352.14 1429.41 388.323 1457.44 415.463C1467.33 424.081 1478.17 431.311 1489.62 437.685C1481.06 440.538 1470.63 433.619 1462.76 429.786C1452.22 424.461 1443.03 418.43 1434.12 410.615C1432.61 409.393 1432.61 409.393 1431.07 408.146C1408.8 389.643 1396.36 363.747 1389.46 336.172C1389.13 335.085 1388.8 333.998 1388.45 332.878C1380.5 304.943 1389.64 271.527 1402.99 246.841C1416.57 222.942 1437.65 202.719 1462.81 191.485C1464.33 190.799 1464.33 190.799 1465.89 190.1C1467.89 189.207 1469.91 188.338 1471.94 187.495C1479.11 184.331 1483.9 180.309 1488.26 173.751C1489.72 169.389 1489.8 166.151 1489.79 161.57C1489.79 160.146 1489.79 158.723 1489.8 157.256C1489.78 153.339 1489.78 153.339 1488.26 149.388Z" fill="#D64214"/>
<path d="M1592.48 457.987C1622.03 463.897 1648.62 483.427 1665.57 508.067C1682.61 534.818 1691.36 563.886 1685.62 595.537C1680.55 617.99 1671.55 638.379 1656.1 655.599C1655 656.826 1653.9 658.052 1652.77 659.316C1636.23 676.801 1615.89 687.928 1592.48 693.497C1595.67 689.985 1599.06 687.843 1603.14 685.461C1631.14 667.822 1650.15 639.949 1658.81 608.226C1659.21 606.804 1659.61 605.382 1660.03 603.917C1668.37 570.661 1660.29 537.158 1643.55 507.892C1630.94 486.926 1613.32 471.843 1592.48 459.341C1592.48 458.894 1592.48 458.448 1592.48 457.987Z" fill="#D54214"/>
<path d="M1755.33 583.44C1760.5 583.878 1762.95 584.913 1767.09 587.924C1762 595.037 1756.51 601.656 1750.76 608.226C1714.37 649.935 1686.42 692.561 1686.74 749.806C1686.65 756.047 1686.58 758.903 1682.68 763.996C1679.11 766.586 1679.11 766.586 1675.22 767.771C1669.38 766.135 1666.69 763.835 1663.17 758.915C1659.33 748.473 1662.5 736.686 1664.22 725.981C1664.5 723.914 1664.78 721.847 1665.06 719.779C1670.63 680.714 1693.67 650.334 1719.01 621.403C1722.54 617.369 1726.03 613.307 1729.53 609.241C1730.2 608.457 1730.87 607.673 1731.57 606.865C1736.54 601.06 1741.36 595.143 1746.08 589.129C1750.28 583.917 1750.28 583.917 1755.33 583.44Z" fill="#273491"/>
<path d="M1485.3 488.103C1493.17 489.953 1498.08 495.229 1502.64 501.712C1507.31 509.99 1508.99 517.623 1507.21 527.016C1503.6 537.632 1498.53 546.266 1488.26 551.379C1483.53 552.563 1483.53 552.563 1480.14 552.733C1480.21 553.568 1480.27 554.404 1480.33 555.265C1480.77 565.44 1479.27 573.475 1472.24 581.172C1462.55 590.035 1454.59 592.756 1441.47 592.465C1433.87 591.677 1428.89 589.185 1423.3 584.117C1421.25 579.644 1421.26 576.536 1421.94 571.682C1424.82 567.706 1424.82 567.706 1428.71 564.914C1434.32 564.129 1436.13 564.447 1440.89 567.621C1445.91 568.169 1449.12 568.311 1453.58 565.845C1456.03 561.799 1456.12 559.751 1456.37 555.101C1456.83 547.362 1458.77 542.32 1463.9 536.491C1468.07 533.118 1471.3 531.298 1476.42 529.723C1480.19 528.701 1480.19 528.701 1482.09 526.086C1483.23 521.387 1482.71 518.16 1481.5 513.481C1480.35 512.141 1479.21 510.801 1478.03 509.421C1474.73 505.36 1474.73 505.36 1473.88 500.538C1475.17 493.457 1478.31 489.968 1485.3 488.103Z" fill="#040100"/>
<path d="M1691.55 298.047C1694.17 299.739 1696.11 301.249 1698.06 303.688C1699.08 312.916 1699.08 312.916 1695.94 317.815C1691.62 320.584 1688.27 321.098 1683.17 321.284C1681.83 320.39 1680.49 319.497 1679.11 318.577C1676.47 318.101 1676.47 318.101 1673.69 318.154C1672.31 318.12 1672.31 318.12 1670.9 318.085C1667.38 318.746 1666.26 319.691 1664.22 322.637C1663.69 326.289 1663.69 326.289 1663.71 330.335C1663.21 338.335 1661.65 343.811 1656.1 349.707C1653.02 352.042 1650.18 353.438 1646.62 355.121C1640.87 357.44 1640.87 357.44 1637.15 361.889C1636.36 365.661 1636.36 365.661 1637.15 370.01C1638.96 372.34 1638.96 372.34 1641.21 374.578C1644.5 378.097 1645.92 380.287 1646.12 385.152C1645.27 390.312 1645.27 390.312 1643.16 393.611C1638.51 396.587 1635.94 397.358 1630.38 397.08C1621.49 392.074 1615.8 383.669 1612.79 374.07C1611.48 364.966 1612.44 357.734 1616.85 349.707C1617.57 348.339 1618.3 346.971 1619.05 345.562C1624.15 339.255 1630.79 334.681 1638.5 332.112C1638.6 330.967 1638.71 329.822 1638.81 328.643C1640.22 316.457 1642.82 309.302 1652.13 301.277C1663.95 292.049 1678.05 291.396 1691.55 298.047Z" fill="#010103"/>
<path d="M1432.87 462.645C1438.47 464.267 1440.84 469.265 1443.75 473.933C1446.77 481.466 1446.1 491.499 1444.07 499.248C1440.15 507.928 1433.22 513.826 1424.48 517.372C1420.38 518.737 1416.82 519.303 1412.47 518.895C1412.13 520.319 1411.8 521.742 1411.45 523.209C1408.99 531.696 1403.75 536.187 1396.23 540.551C1388.47 544.078 1379.85 544.756 1371.63 542.423C1364.28 539.2 1358.33 533.946 1354.27 527.016C1353.99 521.414 1354.74 518.868 1357.82 514.242C1362.41 511.221 1365.11 511.289 1370.51 512.128C1372.69 513.655 1372.69 513.655 1374.74 515.511C1378.26 519.125 1378.26 519.125 1382.27 519.656C1385.49 519.151 1385.49 519.151 1387.51 516.865C1389.18 513.969 1390.58 511.087 1392 508.067C1394.85 502.181 1398.47 498.822 1404.35 495.885C1407.41 495.519 1410.48 495.283 1413.56 495.045C1416.91 494.672 1416.91 494.672 1420.59 491.825C1421.14 485.847 1420.66 482.153 1417.88 476.936C1417.29 473.637 1417.29 473.637 1417.88 470.169C1422.11 464.223 1425.74 462.202 1432.87 462.645Z" fill="#040100"/>
<path d="M1751.18 345.731C1757.24 349.128 1762.51 352.886 1765.73 359.182C1766.04 365.141 1765.4 367.516 1761.42 371.955C1756.82 374.511 1754.67 375.022 1749.49 374.07C1746.76 371.842 1744.05 369.586 1741.37 367.303C1737.81 366.398 1737.81 366.398 1734.6 367.303C1730.17 370.941 1728.8 375.255 1726.83 380.494C1723.74 386.033 1719.9 388.488 1713.9 390.328C1712.36 390.63 1710.81 390.932 1709.22 391.243C1703.89 391.904 1703.89 391.904 1699.41 394.373C1698.95 401.583 1698.95 401.583 1702.12 407.908C1701.93 413.007 1701.42 416.363 1698.65 420.681C1694.82 423.137 1691.73 423.728 1687.18 423.5C1682.28 422.204 1680.38 418.767 1677.75 414.675C1673.77 406.45 1674.07 397.9 1675.05 388.959C1678.49 379.449 1685.9 373.454 1694.67 368.91C1699.32 367.333 1702.67 366.947 1707.53 367.303C1707.66 365.921 1707.66 365.921 1707.79 364.511C1710.31 355.396 1715.98 350.257 1723.95 345.573C1732.84 341.074 1742.28 341.623 1751.18 345.731Z" fill="#010103"/>
<path d="M1408.41 410.615C1412.47 412.899 1412.47 412.899 1415.18 417.382C1416.52 426.359 1416.47 435.579 1411.61 443.485C1406.59 449.801 1402.19 453.385 1394.05 454.741C1390.49 455.1 1386.93 455.449 1383.37 455.788C1377.55 456.827 1375.04 458.712 1371.04 462.862C1366.76 467.154 1361.07 467.672 1355.28 468.139C1347.31 467.923 1341.38 464.303 1335.32 459.341C1330.63 454.244 1328.58 450.412 1328.47 443.437C1330.06 438.549 1331.02 436.452 1335.32 433.624C1339.97 432.863 1339.97 432.863 1344.79 433.624C1348.6 436.839 1348.6 436.839 1351.56 440.392C1352.45 441.285 1353.35 442.178 1354.27 443.099C1356.94 443.168 1356.94 443.168 1359.68 441.745C1361.51 439.507 1363.31 437.249 1365.1 434.978C1370.68 430.73 1374.84 430.47 1381.76 430.664C1383.46 430.7 1385.16 430.737 1386.9 430.775C1388.19 430.822 1389.48 430.869 1390.81 430.917C1390.86 429.399 1390.86 429.399 1390.92 427.851C1391.54 417.111 1391.54 417.111 1394.28 412.391C1399.03 409.833 1403.22 409.506 1408.41 410.615Z" fill="#040100"/>
<path d="M1773.45 419.92C1780.88 423.299 1786.99 427.166 1790.1 434.978C1790.97 439.259 1791.12 442.898 1790.1 447.159C1786.66 451.301 1784.52 452.349 1779.27 453.335C1773.86 452.322 1771.96 449.914 1768.44 445.806C1767.55 444.912 1766.65 444.019 1765.73 443.099C1763.06 443.03 1763.06 443.03 1760.32 444.452C1758.49 446.691 1756.69 448.948 1754.9 451.22C1749.32 455.467 1745.16 455.728 1738.24 455.534C1735.69 455.479 1735.69 455.479 1733.1 455.423C1731.81 455.376 1730.52 455.329 1729.19 455.28C1729.15 456.179 1729.12 457.077 1729.08 458.003C1728.72 463.641 1728.27 467.948 1725.72 473.045C1721.89 475.988 1719.09 476.593 1714.26 476.196C1711.59 475.583 1711.59 475.583 1707.53 473.383C1703.09 465.892 1703.65 458.335 1704.83 449.866C1706.38 445.46 1708.4 442.425 1711.59 439.038C1712.2 438.36 1712.81 437.681 1713.44 436.982C1718.83 432.149 1724.14 431.721 1731.22 431.002C1739.06 430.205 1743.62 429.271 1748.96 423.388C1755.45 416.698 1765.13 417.224 1773.45 419.92Z" fill="#000102"/>
<path d="M1569.64 560.346C1575.76 563.673 1579.87 568.114 1583.01 574.389C1584.15 583.127 1583.24 589.342 1578.09 596.552C1573.91 601.524 1569.94 603.862 1563.4 604.488C1557.33 604.648 1552.92 604.628 1547.31 602.136C1540.76 595.897 1536.63 590.254 1536.23 580.987C1536.67 572.957 1539.88 568.543 1545.79 563.222C1553.75 557.649 1560.41 556.164 1569.64 560.346Z" fill="#F0F0F0"/>
<path d="M1566.77 282.032C1573.92 284.416 1577.38 288.228 1581.66 294.213C1584.33 300.6 1583.49 307.549 1581.49 314.008C1577.94 320.386 1574.01 323.631 1567.53 327.12C1561.91 328.628 1557.21 329.239 1551.76 326.771C1545.48 323.055 1540.12 318.966 1537.33 311.978C1536.34 303.599 1536.9 297.626 1541.05 290.153C1549.03 281.896 1555.68 281.184 1566.77 282.032Z" fill="#F1F1F1"/>
<path d="M1781.97 249.548C1803.65 253.956 1822.07 265.065 1837.47 280.678C1835.51 280.948 1835.51 280.948 1833.51 281.223C1831.8 281.462 1830.09 281.701 1828.33 281.947C1826.64 282.183 1824.94 282.418 1823.19 282.661C1819.74 283.197 1816.46 283.797 1813.11 284.739C1813.3 283.622 1813.5 282.506 1813.7 281.355C1812.79 274.105 1808.97 270.566 1803.63 265.79C1799.21 262.419 1794.6 259.338 1789.95 256.289C1786.88 254.189 1784.43 252.293 1781.97 249.548Z" fill="#26338E"/>
<path d="M1638.5 202.175C1647.58 203.905 1655.42 206.589 1663.8 210.465C1665.56 211.271 1665.56 211.271 1667.36 212.092C1680.93 218.397 1694.37 225.38 1706.18 234.659C1706.18 235.106 1706.18 235.553 1706.18 236.013C1701.52 237.426 1697.5 237.912 1692.64 237.366C1688.4 234.931 1684.88 232.025 1681.11 228.907C1675.76 224.528 1669.96 220.974 1664.05 217.402C1662.48 216.452 1662.48 216.452 1660.88 215.482C1653.6 211.125 1646.23 207.044 1638.5 203.529C1638.5 203.082 1638.5 202.635 1638.5 202.175Z" fill="#27348F"/>
<path d="M1445.71 119.442C1454.2 122.218 1457.12 129.785 1461.19 137.207C1450.71 138.192 1444.19 136.33 1435.48 130.439C1435.48 132.673 1435.48 134.906 1435.48 137.207C1435.03 137.207 1434.58 137.207 1434.12 137.207C1433.31 127.589 1433.31 127.589 1436.92 122.234C1440.89 119.611 1440.89 119.611 1445.71 119.442Z" fill="#D14114"/>
<path d="M62 766L85 225L18 224V97H90L91 60.9999H201L203 97H594V544C594 595.333 575.667 639.333 539 676C503 712 459.333 730 408 730H292L291 599H383C403.667 599 421.333 591.667 436 577C450.667 562.333 458 544.667 458 524L457 405V232L209 227L234 730L62 766ZM1201.86 730L1028.86 766L1049.86 361H797.859V520C797.859 540.667 804.859 558.333 818.859 573C833.526 587.667 851.193 595 871.859 595H970.859V728H848.859C797.526 728 753.526 710 716.859 674C680.859 637.333 662.859 593.333 662.859 542V226H1056.86L1057.86 192H1167.86L1201.86 730Z" fill="black"/>
</svg>
